<?xml version="1.0" encoding="UTF-8" standalone="no"?>
<!DOCTYPE svg PUBLIC "-//W3C//DTD SVG 1.1//EN" "http://www.w3.org/Graphics/SVG/1.1/DTD/svg11.dtd">
<svg width="100%" height="100%" viewBox="0 0 32 32" version="1.1" xmlns="http://www.w3.org/2000/svg" xmlns:xlink="http://www.w3.org/1999/xlink" xml:space="preserve" xmlns:serif="http://www.serif.com/" style="fill-rule:evenodd;clip-rule:evenodd;stroke-linejoin:round;stroke-miterlimit:2;">
    <g id="purple" transform="matrix(0.0625,0,0,0.0625,0,0)">
        <g transform="matrix(0.913223,0,0,1.00716,21.3017,9.7526)">
            <path d="M466.578,353.5C487.818,320.208 499,282.443 499,244C499,123.131 390.563,25 257,25C123.437,25 15,123.131 15,244C15,364.869 123.437,463 257,463C299.48,463 341.211,452.881 378,433.66L351.38,391.934C322.685,406.927 290.134,414.82 257,414.82C152.821,414.82 68.24,338.278 68.24,244C68.24,149.722 152.821,73.18 257,73.18C361.179,73.18 445.76,149.722 445.76,244C445.76,273.985 437.038,303.442 420.471,329.41L466.578,353.5Z" style="fill:rgb(114,81,181);"/>
        </g>
        <g transform="matrix(7.63278e-17,0.53719,-0.592448,1.31839e-16,400.557,117.442)">
            <path d="M466.578,353.5C487.818,320.208 499,282.443 499,244C499,123.131 390.563,25 257,25C123.437,25 15,123.131 15,244C15,364.869 123.437,463 257,463C299.48,463 341.211,452.881 378,433.66L332.02,361.589C309.211,373.506 283.338,379.78 257,379.78C174.191,379.78 106.96,318.939 106.96,244C106.96,169.061 174.191,108.22 257,108.22C339.809,108.22 407.04,169.061 407.04,244C407.04,267.834 400.107,291.249 386.938,311.89L466.578,353.5Z" style="fill:rgb(114,81,181);"/>
        </g>
    </g>
</svg>
